<svg width="1200" height="720" viewBox="0 0 1200 720" fill="none" xmlns="http://www.w3.org/2000/svg">
  <defs>
    <linearGradient id="bg" x1="96" y1="70" x2="1104" y2="664" gradientUnits="userSpaceOnUse">
      <stop stop-color="#3B82F6" stop-opacity="0.18"/>
      <stop offset="1" stop-color="#8B5CF6" stop-opacity="0.14"/>
    </linearGradient>
    <linearGradient id="line" x1="140" y1="500" x2="1060" y2="320" gradientUnits="userSpaceOnUse">
      <stop stop-color="#3B82F6"/>
      <stop offset="1" stop-color="#8B5CF6"/>
    </linearGradient>
    <filter id="shadow" x="-20%" y="-20%" width="140%" height="140%" color-interpolation-filters="sRGB">
      <feGaussianBlur stdDeviation="10" result="b"/>
      <feMerge>
        <feMergeNode in="b"/>
        <feMergeNode in="SourceGraphic"/>
      </feMerge>
    </filter>
  </defs>

  <rect x="40" y="40" width="1120" height="640" rx="28" fill="#0B1220"/>
  <rect x="40" y="40" width="1120" height="640" rx="28" fill="url(#bg)"/>
  <rect x="64" y="64" width="1072" height="592" rx="22" fill="#0F172A" stroke="#1F2937"/>

  <!-- header -->
  <rect x="92" y="96" width="220" height="34" rx="10" fill="#111B33" stroke="#1F2A44"/>
  <rect x="328" y="96" width="140" height="34" rx="10" fill="#0E1A35" stroke="#1F2A44"/>
  <rect x="486" y="96" width="140" height="34" rx="10" fill="#0E1A35" stroke="#1F2A44"/>
  <rect x="980" y="96" width="128" height="34" rx="10" fill="#111B33" stroke="#1F2A44"/>

  <!-- KPI cards -->
  <g filter="url(#shadow)">
    <rect x="92" y="156" width="250" height="118" rx="18" fill="#0B132B" stroke="#1F2A44"/>
    <rect x="362" y="156" width="250" height="118" rx="18" fill="#0B132B" stroke="#1F2A44"/>
    <rect x="632" y="156" width="250" height="118" rx="18" fill="#0B132B" stroke="#1F2A44"/>
    <rect x="902" y="156" width="206" height="118" rx="18" fill="#0B132B" stroke="#1F2A44"/>
  </g>
  <rect x="116" y="184" width="110" height="10" rx="5" fill="#9CA3AF" fill-opacity="0.30"/>
  <rect x="116" y="208" width="92" height="26" rx="10" fill="#E5E7EB" fill-opacity="0.10"/>
  <rect x="386" y="184" width="110" height="10" rx="5" fill="#9CA3AF" fill-opacity="0.30"/>
  <rect x="386" y="208" width="128" height="26" rx="10" fill="#E5E7EB" fill-opacity="0.10"/>
  <rect x="656" y="184" width="110" height="10" rx="5" fill="#9CA3AF" fill-opacity="0.30"/>
  <rect x="656" y="208" width="104" height="26" rx="10" fill="#E5E7EB" fill-opacity="0.10"/>
  <rect x="926" y="184" width="110" height="10" rx="5" fill="#9CA3AF" fill-opacity="0.30"/>
  <rect x="926" y="208" width="74" height="26" rx="10" fill="#E5E7EB" fill-opacity="0.10"/>

  <!-- main panel -->
  <rect x="92" y="304" width="680" height="330" rx="20" fill="#0B132B" stroke="#1F2A44"/>
  <rect x="804" y="304" width="304" height="330" rx="20" fill="#0B132B" stroke="#1F2A44"/>

  <!-- chart grid -->
  <g opacity="0.55">
    <rect x="122" y="344" width="620" height="1" fill="#1F2A44"/>
    <rect x="122" y="394" width="620" height="1" fill="#1F2A44"/>
    <rect x="122" y="444" width="620" height="1" fill="#1F2A44"/>
    <rect x="122" y="494" width="620" height="1" fill="#1F2A44"/>
    <rect x="122" y="544" width="620" height="1" fill="#1F2A44"/>
    <rect x="122" y="594" width="620" height="1" fill="#1F2A44"/>
  </g>

  <!-- chart line -->
  <path d="M140 566 C 240 520, 280 540, 360 496 C 430 456, 480 468, 560 420 C 650 366, 720 410, 820 362 C 910 320, 960 352, 1060 316" stroke="url(#line)" stroke-width="4" stroke-linecap="round"/>
  <path d="M140 566 C 240 520, 280 540, 360 496 C 430 456, 480 468, 560 420 C 650 366, 720 410, 820 362 C 910 320, 960 352, 1060 316 L 1060 634 L 140 634 Z" fill="#3B82F6" fill-opacity="0.08"/>

  <!-- side list -->
  <rect x="832" y="340" width="248" height="58" rx="14" fill="#0F172A" stroke="#1F2A44"/>
  <rect x="832" y="414" width="248" height="58" rx="14" fill="#0F172A" stroke="#1F2A44"/>
  <rect x="832" y="488" width="248" height="58" rx="14" fill="#0F172A" stroke="#1F2A44"/>
  <rect x="854" y="362" width="140" height="10" rx="5" fill="#9CA3AF" fill-opacity="0.28"/>
  <rect x="854" y="436" width="170" height="10" rx="5" fill="#9CA3AF" fill-opacity="0.28"/>
  <rect x="854" y="510" width="154" height="10" rx="5" fill="#9CA3AF" fill-opacity="0.28"/>
  <circle cx="1056" cy="369" r="8" fill="#3B82F6" fill-opacity="0.55"/>
  <circle cx="1056" cy="443" r="8" fill="#F59E0B" fill-opacity="0.55"/>
  <circle cx="1056" cy="517" r="8" fill="#EF4444" fill-opacity="0.55"/>
</svg>


