<svg width="1200" height="720" viewBox="0 0 1200 720" fill="none" xmlns="http://www.w3.org/2000/svg">
  <defs>
    <linearGradient id="a" x1="220" y1="140" x2="980" y2="580" gradientUnits="userSpaceOnUse">
      <stop stop-color="#3B82F6" stop-opacity="0.18"/>
      <stop offset="1" stop-color="#8B5CF6" stop-opacity="0.16"/>
    </linearGradient>
    <linearGradient id="b" x1="320" y1="220" x2="880" y2="500" gradientUnits="userSpaceOnUse">
      <stop stop-color="#3B82F6"/>
      <stop offset="1" stop-color="#8B5CF6"/>
    </linearGradient>
  </defs>

  <rect x="60" y="60" width="1080" height="600" rx="28" fill="#0B1220"/>
  <rect x="60" y="60" width="1080" height="600" rx="28" fill="url(#a)"/>
  <rect x="84" y="84" width="1032" height="552" rx="22" fill="#0F172A" stroke="#1F2937"/>

  <!-- folder -->
  <path d="M340 270c0-18 14-32 32-32h140l36 36h280c18 0 32 14 32 32v230c0 18-14 32-32 32H372c-18 0-32-14-32-32V270Z" fill="#0B132B" stroke="#1F2A44" stroke-width="2"/>
  <path d="M372 238h140l36 36H372c-18 0-32-14-32-32 0-2 0-3 1-4 4 0 16 0 31 0Z" fill="#0F172A" stroke="#1F2A44" stroke-width="2"/>

  <!-- document stack -->
  <rect x="438" y="312" width="430" height="236" rx="18" fill="#0F172A" stroke="#1F2A44"/>
  <rect x="420" y="332" width="430" height="236" rx="18" fill="#0F172A" stroke="#1F2A44" opacity="0.75"/>
  <rect x="402" y="352" width="430" height="236" rx="18" fill="#0F172A" stroke="#1F2A44" opacity="0.55"/>

  <!-- "text" lines -->
  <rect x="468" y="372" width="280" height="12" rx="6" fill="#9CA3AF" fill-opacity="0.28"/>
  <rect x="468" y="398" width="330" height="12" rx="6" fill="#9CA3AF" fill-opacity="0.22"/>
  <rect x="468" y="438" width="300" height="12" rx="6" fill="#9CA3AF" fill-opacity="0.22"/>
  <rect x="468" y="464" width="250" height="12" rx="6" fill="#9CA3AF" fill-opacity="0.22"/>
  <rect x="468" y="504" width="320" height="12" rx="6" fill="#9CA3AF" fill-opacity="0.22"/>
  <rect x="468" y="530" width="210" height="12" rx="6" fill="#9CA3AF" fill-opacity="0.22"/>

  <!-- check badge -->
  <circle cx="824" cy="390" r="34" fill="url(#b)" fill-opacity="0.22" stroke="url(#b)" stroke-opacity="0.55" stroke-width="2"/>
  <path d="M810 390l10 10 22-24" stroke="url(#b)" stroke-width="6" stroke-linecap="round" stroke-linejoin="round"/>
</svg>


